<!-- ch-107.svg -->
<svg width="300" height="50" viewBox="0 0 300 50" xmlns="http://www.w3.org/2000/svg" font-family="'Segoe UI', Roboto, 'Helvetica Neue', Arial, sans-serif"><defs><linearGradient id="g107" x1="0%" y1="0%" x2="100%" y2="100%"><stop offset="0%" style="stop-color:#f8f9fa;"/><stop offset="100%" style="stop-color:#e9ecef;"/></linearGradient><pattern id="p107" width="10" height="10" patternUnits="userSpaceOnUse"><path d="M 10 0 L 0 0 0 10" fill="none" stroke="rgba(0,0,0,0.08)" stroke-width="0.5"/></pattern></defs><rect width="300" height="50" fill="url(#g107)"/><rect width="300" height="50" fill="url(#p107)"/><circle cx="280" cy="10" r="30" fill="rgba(0, 0, 0, 0.03)"/><rect x="-10" y="-15" width="80" height="80" rx="10" fill="rgba(0, 0, 0, 0.04)" transform="rotate(-30)"/><g><g transform="translate(15, 8)"><rect width="34" height="34" fill="#ffffff" rx="3" style="filter: drop-shadow(0px 1px 1px rgba(0,0,0,0.1));"/><g fill="none" stroke="#007bff" stroke-width="3" stroke-linecap="round"><path d="M 14 11 a 5.5 5.5 0 0 0 0 11 M 22 22 a 5.5 5.5 0 0 0 0 -11" /><path d="M 15 16.5 h 6" /></g><path d="M 7 9 h 20 M 7 17 h 4 M 7 25 h 20" stroke="#79bbff" stroke-width="2.5" stroke-linecap="round"/></g><text x="65" y="31" font-size="16" font-weight="600" fill="#212529">Lists and Links</text></g><path d="M 0 0 L 40 0 L 0 40 Z" fill="rgba(0,0,0,0.1)"/><text x="8" y="18" font-size="12" font-weight="bold" fill="#fff" text-shadow="1px 1px 2px rgba(0,0,0,0.2)">3</text></svg>