<svg width="300" height="50" viewBox="0 0 300 50" xmlns="http://www.w3.org/2000/svg" font-family="'Segoe UI', Roboto, 'Helvetica Neue', Arial, sans-serif">
  <defs>
    <linearGradient id="g140" x1="0%" y1="0%" x2="100%" y2="100%">
      <stop offset="0%" style="stop-color:#f8f9fa;"/><stop offset="100%" style="stop-color:#e9ecef;"/>
    </linearGradient>
    <pattern id="p140" width="10" height="10" patternUnits="userSpaceOnUse">
      <path d="M 10 0 L 0 0 0 10" fill="none" stroke="rgba(0,0,0,0.08)" stroke-width="0.5"/>
    </pattern>
  </defs>
  <rect width="300" height="50" fill="url(#g140)"/>
  <rect width="300" height="50" fill="url(#p140)"/>
  <circle cx="280" cy="10" r="30" fill="rgba(0, 0, 0, 0.03)"/>
  <rect x="-10" y="-15" width="80" height="80" rx="10" fill="rgba(0, 0, 0, 0.04)" transform="rotate(-30)"/>
  <g>
    <g transform="translate(20, 12) rotate(-15 13 13)">
        <path d="M10 20 C4 20, 4 10, 10 10 C12 10, 16 6, 20 10 C26 10, 26 20, 20 20" fill="#e0e7ff" stroke="#4338ca" stroke-width="1.5"/>
        <path d="M10 14 L14 10 L18 14" stroke="#4338ca" stroke-width="1.5" fill="none" stroke-linecap="round" stroke-linejoin="round"/>
        <line x1="14" y1="10" x2="14" y2="20" stroke="#4338ca" stroke-width="1.5" fill="none" stroke-linecap="round"/>
    </g>
    <text x="65" y="31" font-size="16" font-weight="600" fill="#212529">Interacting with the Web</text>
  </g>
  <g>
    <circle cx="16" cy="16" r="10" fill="#ef4444"/>
    <text x="16" y="16" font-size="12" font-weight="bold" fill="#fff" text-anchor="middle" dominant-baseline="central">4</text>
  </g>
</svg>