<!-- ch-114.svg -->
<svg width="300" height="50" viewBox="0 0 300 50" xmlns="http://www.w3.org/2000/svg" font-family="'Segoe UI', Roboto, 'Helvetica Neue', Arial, sans-serif"><defs><linearGradient id="g114" x1="0%" y1="0%" x2="100%" y2="100%"><stop offset="0%" style="stop-color:#f8f9fa;"/><stop offset="100%" style="stop-color:#e9ecef;"/></linearGradient><pattern id="p114" width="10" height="10" patternUnits="userSpaceOnUse"><path d="M 10 0 L 0 0 0 10" fill="none" stroke="rgba(0,0,0,0.08)" stroke-width="0.5"/></pattern></defs><rect width="300" height="50" fill="url(#g114)"/><rect width="300" height="50" fill="url(#p114)"/><circle cx="280" cy="10" r="30" fill="rgba(0, 0, 0, 0.03)"/><rect x="-10" y="-15" width="80" height="80" rx="10" fill="rgba(0, 0, 0, 0.04)" transform="rotate(-30)"/><g><g transform="translate(20, 13) rotate(-45 13 13)"><path d="M 17 6 C 23 6 23 13 23 13 L 23 23 C 23 28 19 30 17 30 C 15 30 11 28 11 23 L 11 13 C 11 13 11 6 17 6 Z" fill="#007bff"/><path d="M 17 23 L 17 32" stroke="#ffc107" stroke-width="3" stroke-linecap="round"/><path d="M 13 28 L 21 28" stroke="#ffc107" stroke-width="3" stroke-linecap="round"/><circle cx="17" cy="17" r="4" fill="#79bbff" stroke="#fff" stroke-width="2"/></g><text x="65" y="31" font-size="16" font-weight="600" fill="#212529">Finalizing Your Project</text></g><path d="M 0 0 L 40 0 L 0 40 Z" fill="rgba(0,0,0,0.1)"/><text x="8" y="18" font-size="12" font-weight="bold" fill="#fff" text-shadow="1px 1px 2px rgba(0,0,0,0.2)">10</text></svg>