<!-- ch-84.svg -->
<svg width="300" height="50" viewBox="0 0 300 50" xmlns="http://www.w3.org/2000/svg" font-family="'Segoe UI', Roboto, 'Helvetica Neue', Arial, sans-serif"><defs><linearGradient id="g84" x1="0%" y1="0%" x2="100%" y2="100%"><stop offset="0%" style="stop-color:#f8f9fa;"/><stop offset="100%" style="stop-color:#e9ecef;"/></linearGradient><pattern id="p84" width="10" height="10" patternUnits="userSpaceOnUse"><path d="M 10 0 L 0 0 0 10" fill="none" stroke="rgba(0,0,0,0.08)" stroke-width="0.5"/></pattern></defs><rect width="300" height="50" fill="url(#g84)"/><rect width="300" height="50" fill="url(#p84)"/><circle cx="280" cy="10" r="30" fill="rgba(0, 0, 0, 0.03)"/><rect x="-10" y="-15" width="80" height="80" rx="10" fill="rgba(0, 0, 0, 0.04)" transform="rotate(-30)"/><g><g transform="translate(15, 8)"><rect width="34" height="34" fill="#ffffff" rx="3" style="filter: drop-shadow(0px 1px 1px rgba(0,0,0,0.1));"/><path d="M17,6 C12,6 10,11 10,14 C10,17 12,20 15,21 C12,22 10,25 11,28 C14,29 16,27 17,25 C18,27 20,29 23,28 C24,25 22,22 19,21 C22,20 24,17 24,14 C24,11 22,6 17,6Z" fill="#f7df1e" stroke="#000" stroke-width="1"/><text x="17" y="22" font-weight="bold" font-size="14" fill="black" text-anchor="middle" font-family="monospace">JS</text></g><text x="65" y="31" font-size="16" font-weight="600" fill="#212529">Introduction to JavaScript</text></g><path d="M 0 0 L 40 0 L 0 40 Z" fill="rgba(0,0,0,0.1)"/><text x="8" y="18" font-size="12" font-weight="bold" fill="#fff" text-shadow="1px 1px 2px rgba(0,0,0,0.2)">1</text></svg>