<!-- ch-85.svg -->
<svg width="300" height="50" viewBox="0 0 300 50" xmlns="http://www.w3.org/2000/svg" font-family="'Segoe UI', Roboto, 'Helvetica Neue', Arial, sans-serif"><defs><linearGradient id="g85" x1="0%" y1="0%" x2="100%" y2="100%"><stop offset="0%" style="stop-color:#f8f9fa;"/><stop offset="100%" style="stop-color:#e9ecef;"/></linearGradient><pattern id="p85" width="10" height="10" patternUnits="userSpaceOnUse"><path d="M 10 0 L 0 0 0 10" fill="none" stroke="rgba(0,0,0,0.08)" stroke-width="0.5"/></pattern></defs><rect width="300" height="50" fill="url(#g85)"/><rect width="300" height="50" fill="url(#p85)"/><circle cx="280" cy="10" r="30" fill="rgba(0, 0, 0, 0.03)"/><rect x="-10" y="-15" width="80" height="80" rx="10" fill="rgba(0, 0, 0, 0.04)" transform="rotate(-30)"/><g><g transform="translate(15, 8)"><rect width="34" height="34" fill="#ffffff" rx="3" style="filter: drop-shadow(0px 1px 1px rgba(0,0,0,0.1));"/><rect x="5" y="7" width="10" height="20" fill="#f7df1e" rx="1"/><text x="10" y="20" font-size="10" font-weight="bold" text-anchor="middle">""</text><rect x="17" y="7" width="12" height="10" fill="#007bff" rx="1"/><text x="23" y="15" font-size="10" font-weight="bold" text-anchor="middle">#</text><rect x="17" y="19" width="12" height="8" fill="#28a745" rx="1"/><text x="23" y="26" font-size="8" font-weight="bold" text-anchor="middle" fill="white">t/f</text></g><text x="65" y="31" font-size="16" font-weight="600" fill="#212529">Variables &amp; Data Types</text></g><path d="M 0 0 L 40 0 L 0 40 Z" fill="rgba(0,0,0,0.1)"/><text x="8" y="18" font-size="12" font-weight="bold" fill="#fff" text-shadow="1px 1px 2px rgba(0,0,0,0.2)">2</text></svg>