<!-- ch-93.svg -->
<svg width="300" height="50" viewBox="0 0 300 50" xmlns="http://www.w3.org/2000/svg" font-family="'Segoe UI', Roboto, 'Helvetica Neue', Arial, sans-serif"><defs><linearGradient id="g93" x1="0%" y1="0%" x2="100%" y2="100%"><stop offset="0%" style="stop-color:#f8f9fa;"/><stop offset="100%" style="stop-color:#e9ecef;"/></linearGradient><pattern id="p93" width="10" height="10" patternUnits="userSpaceOnUse"><path d="M 10 0 L 0 0 0 10" fill="none" stroke="rgba(0,0,0,0.08)" stroke-width="0.5"/></pattern></defs><rect width="300" height="50" fill="url(#g93)"/><rect width="300" height="50" fill="url(#p93)"/><circle cx="280" cy="10" r="30" fill="rgba(0, 0, 0, 0.03)"/><rect x="-10" y="-15" width="80" height="80" rx="10" fill="rgba(0, 0, 0, 0.04)" transform="rotate(-30)"/><g><g transform="translate(15, 8)"><rect width="34" height="34" fill="#ffffff" rx="3" style="filter: drop-shadow(0px 1px 1px rgba(0,0,0,0.1));"/><rect x="5" y="7" width="10" height="10" fill="#f7df1e" rx="1"/><rect x="19" y="7" width="10" height="10" fill="#f7df1e" rx="1" opacity="0.5"/><path d="M15 12 h4" stroke="#212529" stroke-width="1.5" stroke-dasharray="2 2"/><rect x="12" y="20" width="10" height="10" fill="#007bff" rx="1"/><path d="M7 25 h5" stroke="#2129" stroke-width="1.5"/><path d="M27 25 h-5" stroke="#2129" stroke-width="1.5"/><path d="M7 25 q5 -8 10 0" fill="none" stroke="#2129" stroke-width="1.5"/><path d="M27 25 q-5 -8 -10 0" fill="none" stroke="#2129" stroke-width="1.5"/></g><text x="65" y="31" font-size="16" font-weight="600" fill="#212529">Data &amp; Variables: Full Story</text></g><path d="M 0 0 L 40 0 L 0 40 Z" fill="rgba(0,0,0,0.1)"/><text x="8" y="18" font-size="12" font-weight="bold" fill="#fff" text-shadow="1px 1px 2px rgba(0,0,0,0.2)">1</text></svg>