<!-- ch-97.svg -->
<svg width="300" height="50" viewBox="0 0 300 50" xmlns="http://www.w3.org/2000/svg" font-family="'Segoe UI', Roboto, 'Helvetica Neue', Arial, sans-serif"><defs><linearGradient id="g97" x1="0%" y1="0%" x2="100%" y2="100%"><stop offset="0%" style="stop-color:#f8f9fa;"/><stop offset="100%" style="stop-color:#e9ecef;"/></linearGradient><pattern id="p97" width="10" height="10" patternUnits="userSpaceOnUse"><path d="M 10 0 L 0 0 0 10" fill="none" stroke="rgba(0,0,0,0.08)" stroke-width="0.5"/></pattern></defs><rect width="300" height="50" fill="url(#g97)"/><rect width="300" height="50" fill="url(#p97)"/><circle cx="280" cy="10" r="30" fill="rgba(0, 0, 0, 0.03)"/><rect x="-10" y="-15" width="80" height="80" rx="10" fill="rgba(0, 0, 0, 0.04)" transform="rotate(-30)"/><g><g transform="translate(15, 8)"><rect width="34" height="34" fill="#ffffff" rx="3" style="filter: drop-shadow(0px 1px 1px rgba(0,0,0,0.1));"/><path d="M5,8 l5,5 l-5,5" fill="none" stroke="#dc3545" stroke-width="1.5"/><path d="M10,13 l5,5 l-5,5" fill="none" stroke="#dc3545" stroke-width="1.5"/><circle cx="20" cy="10" r="3" fill="#28a745"/><path d="M20,13 v5" stroke="#28a745" stroke-width="2"/><circle cx="20" cy="21" r="3" fill="#28a745"/><path d="M20,24 v5" stroke="#28a745" stroke-width="2"/><circle cx="20" cy="32" r="3" fill="#28a745"/></g><text x="65" y="31" font-size="16" font-weight="600" fill="#212529">Asynchronous JavaScript</text></g><path d="M 0 0 L 40 0 L 0 40 Z" fill="rgba(0,0,0,0.1)"/><text x="8" y="18" font-size="12" font-weight="bold" fill="#fff" text-shadow="1px 1px 2px rgba(0,0,0,0.2)">5</text></svg>