<!-- ch-98.svg -->
<svg width="300" height="50" viewBox="0 0 300 50" xmlns="http://www.w3.org/2000/svg" font-family="'Segoe UI', Roboto, 'Helvetica Neue', Arial, sans-serif"><defs><linearGradient id="g98" x1="0%" y1="0%" x2="100%" y2="100%"><stop offset="0%" style="stop-color:#f8f9fa;"/><stop offset="100%" style="stop-color:#e9ecef;"/></linearGradient><pattern id="p98" width="10" height="10" patternUnits="userSpaceOnUse"><path d="M 10 0 L 0 0 0 10" fill="none" stroke="rgba(0,0,0,0.08)" stroke-width="0.5"/></pattern></defs><rect width="300" height="50" fill="url(#g98)"/><rect width="300" height="50" fill="url(#p98)"/><circle cx="280" cy="10" r="30" fill="rgba(0, 0, 0, 0.03)"/><rect x="-10" y="-15" width="80" height="80" rx="10" fill="rgba(0, 0, 0, 0.04)" transform="rotate(-30)"/><g><g transform="translate(15, 8)"><rect width="34" height="34" fill="#ffffff" rx="3" style="filter: drop-shadow(0px 1px 1px rgba(0,0,0,0.1));"/><text x="10" y="22" font-size="9" font-weight="bold" text-anchor="middle" font-family="monospace" fill="#007bff">async</text><path d="M22,12 a5,5 0 0 1 0,10 h-2 a7,7 0 0 1 -3,-13 a7,7 0 0 1 10,2" fill="#79bbff"/><path d="M16 17 L 22 17" stroke="#f7df1e" stroke-width="2" stroke-linecap="round"/></g><text x="65" y="31" font-size="16" font-weight="600" fill="#212529">Modern Async &amp; APIs</text></g><path d="M 0 0 L 40 0 L 0 40 Z" fill="rgba(0,0,0,0.1)"/><text x="8" y="18" font-size="12" font-weight="bold" fill="#fff" text-shadow="1px 1px 2px rgba(0,0,0,0.2)">6</text></svg>